# Blender 3.4.1
# www.blender.org
mtllib AESLowPoly.mtl
o Plane
v 0.162407 0.000000 0.001156
v 0.162407 0.000000 -1.395035
v 1.211429 0.000000 0.001156
v 1.211429 0.000000 -1.395035
v 0.162407 0.615243 0.001156
v 1.211429 0.615243 -1.395035
v 1.211429 0.615243 0.001156
v 0.162407 0.000000 -0.431521
v 1.211429 0.000000 -0.431521
v 0.162407 0.615243 -0.431521
v 1.211429 0.615243 -0.431521
v 0.305705 0.000000 -1.395035
v 0.305705 0.000000 0.001156
v 0.305705 0.615243 0.001156
v 0.305705 0.000000 -0.431521
v 0.305705 0.615243 -0.431521
v 1.211429 0.615243 -0.539680
v 0.162407 0.000000 -0.539680
v 1.211429 0.000000 -0.539680
v 0.305705 0.000000 -0.539680
v 0.305705 0.615243 -0.539680
v 1.211429 0.615243 -0.955337
v 0.162407 0.000000 -0.955337
v 1.211429 0.000000 -0.955337
v 0.305705 0.000000 -0.955337
v 0.758567 0.000000 0.001156
v 0.758567 0.615243 0.001156
v 0.758567 0.000000 -0.431521
v 0.758567 0.000000 -1.395035
v 0.758567 0.615243 -1.395035
v 0.758567 0.615243 -0.431521
v 0.758567 0.000000 -0.539680
v 0.758567 0.615243 -0.539680
v 0.758567 0.000000 -0.955337
v 0.758567 0.615243 -0.955337
v 0.758567 0.814414 -0.539680
v 0.305705 0.814414 -0.539680
v 0.305705 0.814414 -0.955337
v 0.758567 0.814414 -0.955337
v 0.305705 0.526006 -1.395035
v 0.162407 0.526006 -1.395035
v 0.162407 0.526006 -0.539680
v 0.162407 0.526006 -0.431521
v 0.305705 0.526006 -0.431521
v 0.758567 0.526006 -1.395035
v 0.305705 0.526006 -0.955337
v 0.162407 0.526006 -0.955337
v 0.305705 0.526006 -0.539680
v 0.758567 0.526006 -0.955337
v 0.502394 0.000000 -1.395035
v 0.502394 0.615243 -0.431521
v 0.502394 0.615243 -0.539680
v 0.502394 0.000000 0.001156
v 0.502394 0.615243 0.001156
v 0.502394 0.000000 -0.431521
v 0.502394 0.000000 -0.539680
v 0.502394 0.000000 -0.955337
v 0.502394 0.814414 -0.539680
v 0.502394 0.814414 -0.955337
v 0.502394 0.526006 -1.395035
v 0.502394 0.526006 -0.955337
vn 1.0000 -0.0000 -0.0000
vn -0.0000 -0.0000 1.0000
vn -0.0000 1.0000 -0.0000
vn -0.0000 -0.0000 -1.0000
vn -1.0000 -0.0000 -0.0000
vn -0.0000 -1.0000 -0.0000
vn -0.3290 0.9443 -0.0000
vt 0.000000 0.000000
vt 0.000000 1.000000
vt 0.675762 0.000000
vt 0.675762 1.000000
vt 0.000000 0.000000
vt 0.675762 1.000000
vt 0.675762 0.000000
vt 0.000000 0.309898
vt 0.675762 0.309898
vt 0.000000 0.309898
vt 0.675762 0.309898
vt 0.092310 1.000000
vt 0.092310 0.000000
vt 0.092310 0.000000
vt 0.092310 0.309898
vt 0.092310 0.309898
vt 0.675762 0.387365
vt 0.000000 0.387365
vt 0.675762 0.387365
vt 0.092310 0.387365
vt 0.092310 0.387365
vt 0.675762 0.685073
vt 0.000000 0.685073
vt 0.675762 0.685073
vt 0.092310 0.685073
vt 0.384036 0.000000
vt 0.384036 0.000000
vt 0.384036 0.309898
vt 0.384036 1.000000
vt 0.384036 1.000000
vt 0.000000 0.000000
vt 0.384036 0.309898
vt 0.384036 0.387365
vt 0.384036 0.387365
vt 0.384036 0.685073
vt 0.384036 0.685073
vt 0.384036 0.387365
vt 0.092310 0.387365
vt 0.092310 0.685073
vt 0.384036 0.685073
vt 0.092310 1.000000
vt 0.000000 1.000000
vt 0.000000 0.387365
vt 0.000000 0.309898
vt 0.092310 0.309898
vt 0.384036 1.000000
vt 0.000000 0.000000
vt 0.092310 0.685073
vt 0.000000 0.685073
vt 0.092310 0.387365
vt 0.384036 0.685073
vt 0.238061 1.000000
vt 0.238061 0.309898
vt 0.238061 0.387365
vt 0.238061 0.000000
vt 0.238061 0.000000
vt 0.238061 0.309898
vt 0.238061 0.387365
vt 0.238061 0.685073
vt 0.238061 0.387365
vt 0.238061 0.685073
vt 0.238061 1.000000
vt 0.000000 0.000000
vt 0.238061 0.685073
s 0
f 11/11/1 7/7/1 3/3/1 9/9/1
f 13/13/2 14/14/2 5/5/2 1/1/2
f 35/36/3 22/22/3 6/6/3 30/30/3
f 29/29/4 45/46/4 30/30/4 6/6/4 4/4/4
f 23/23/5 47/49/5 41/42/5 2/2/5
f 34/35/6 29/29/6 4/4/6 24/24/6
f 26/26/6 28/28/6 9/9/6 3/3/6
f 1/1/5 5/5/5 10/10/5 43/44/5 8/8/5
f 27/27/3 7/7/3 11/11/3 31/32/3
f 17/17/1 11/11/1 9/9/1 19/19/1
f 5/5/3 14/14/3 16/16/3 10/10/3
f 1/1/6 8/8/6 15/15/6 13/13/6
f 23/23/6 2/2/6 12/12/6 25/25/6
f 2/2/4 41/42/4 40/41/4 12/12/4
f 8/8/5 43/44/5 42/43/5 18/18/5
f 53/55/2 54/56/2 14/14/2 13/13/2
f 10/10/4 16/16/4 44/45/4 43/44/4
f 8/8/6 18/18/6 20/20/6 15/15/6
f 22/22/1 17/17/1 19/19/1 24/24/1
f 28/28/6 32/33/6 19/19/6 9/9/6
f 31/32/3 11/11/3 17/17/3 33/34/3
f 6/6/1 22/22/1 24/24/1 4/4/1
f 18/18/6 23/23/6 25/25/6 20/20/6
f 32/33/6 34/35/6 24/24/6 19/19/6
f 18/18/5 42/43/5 47/49/5 23/23/5
f 33/34/3 17/17/3 22/22/3 35/36/3
f 21/21/5 37/38/5 38/39/5 46/48/5 48/50/5
f 56/58/6 57/59/6 34/35/6 32/33/6
f 51/53/3 31/32/3 33/34/3 52/54/3
f 55/57/6 56/58/6 32/33/6 28/28/6
f 3/3/2 7/7/2 27/27/2 26/26/2
f 54/56/3 27/27/3 31/32/3 51/53/3
f 53/55/6 55/57/6 28/28/6 26/26/6
f 57/59/6 50/52/6 29/29/6 34/35/6
f 50/52/4 60/62/4 45/46/4 29/29/4
f 16/16/5 21/21/5 48/50/5 44/45/5
f 58/60/3 36/37/3 39/40/3 59/61/3
f 52/54/2 33/34/2 36/37/2 58/60/2
f 61/64/4 59/61/4 39/40/4 35/36/4 49/51/4
f 33/34/1 35/36/1 39/40/1 36/37/1
f 47/49/3 46/48/3 40/41/3 41/42/3
f 43/44/3 44/45/3 48/50/3 42/43/3
f 42/43/3 48/50/3 46/48/3 47/49/3
f 46/48/3 61/64/3 60/62/3 40/41/3
f 46/48/4 38/39/4 59/61/4 61/64/4
f 21/21/2 52/54/2 58/60/2 37/38/2
f 37/38/3 58/60/3 59/61/3 38/39/3
f 12/12/4 40/41/4 60/62/4 50/52/4
f 25/25/6 12/12/6 50/52/6 57/59/6
f 13/13/6 15/15/6 55/57/6 53/55/6
f 14/14/3 54/56/3 51/53/3 16/16/3
f 15/15/6 20/20/6 56/58/6 55/57/6
f 16/16/3 51/53/3 52/54/3 21/21/3
f 20/20/6 25/25/6 57/59/6 56/58/6
f 26/26/2 27/27/2 54/56/2 53/55/2
f 61/64/7 35/36/7 30/30/7 60/62/7
f 60/63/4 30/31/4 45/47/4
o Plane.001
v -0.800389 0.078316 0.000000
v 0.162407 0.078316 0.000000
v -0.800389 0.078316 -1.663523
v 0.162407 0.078316 -1.663523
v 1.710139 0.000000 0.000000
v 1.710139 0.000000 -1.663523
vn -0.0000 1.0000 -0.0000
vn 0.0505 0.9987 -0.0000
vt 0.000000 0.000000
vt 1.000000 0.000000
vt 0.000000 1.000000
vt 1.000000 1.000000
vt 1.000000 0.000000
vt 1.000000 1.000000
s 0
f 62/65/8 63/66/8 65/68/8 64/67/8
f 65/68/9 63/66/9 66/69/9 67/70/9
o Plane.003
v 0.162407 0.078317 -1.395035
v 0.162407 0.078317 -0.388724
v -0.491443 0.078317 -1.395035
v -0.491443 0.078317 -0.388724
v 0.162407 0.526006 -0.388724
v 0.162407 0.526006 -1.395035
v -0.491443 0.526006 -1.395035
v -0.491443 0.526006 -0.388724
vn -0.0000 -1.0000 -0.0000
vn -0.0000 1.0000 -0.0000
vn -0.0000 -0.0000 -1.0000
vn -1.0000 -0.0000 -0.0000
vn -0.0000 -0.0000 1.0000
vn 1.0000 -0.0000 -0.0000
vt 0.000000 1.000000
vt 0.000000 0.279245
vt 0.000000 1.000000
vt 0.000000 0.279245
vt 0.000000 0.279245
vt 0.000000 1.000000
vt 0.000000 1.000000
vt 0.000000 0.279245
s 0
f 69/72/10 71/74/10 70/73/10 68/71/10
f 72/75/11 73/76/11 74/77/11 75/78/11
f 68/71/12 70/73/12 74/77/12 73/76/12
f 70/73/13 71/74/13 75/78/13 74/77/13
f 71/74/14 69/72/14 72/75/14 75/78/14
f 69/72/15 68/71/15 73/76/15 72/75/15
o Cube
v -0.548761 0.078316 -0.388724
v -0.548761 0.078316 -1.395035
v -0.491443 0.078316 -0.388724
v -0.491443 0.227574 -0.388724
v -0.491443 0.078316 -1.395035
v -0.491443 0.227574 -1.395035
v -0.497369 0.227574 -0.388724
v -0.548761 0.168069 -0.388724
v -0.548761 0.168069 -1.395035
v -0.497369 0.227574 -1.395035
vn -0.0000 1.0000 -0.0000
vn 1.0000 -0.0000 -0.0000
vn -1.0000 -0.0000 -0.0000
vn -0.0000 -1.0000 -0.0000
vn -0.0000 -0.0000 -1.0000
vn -0.7568 0.6536 -0.0000
vn -0.0000 -0.0000 1.0000
vt 0.375000 0.000000
vt 0.125000 0.750000
vt 0.375000 1.000000
vt 0.125000 0.500000
vt 0.375000 0.250000
vt 0.375000 0.750000
vt 0.625000 0.750000
vt 0.375000 0.500000
vt 0.625000 0.500000
vt 0.742210 0.750000
vt 0.625000 0.000000
vt 0.625000 0.867210
vt 0.598131 0.000000
vt 0.598131 1.000000
vt 0.598131 0.250000
vt 0.742210 0.500000
vt 0.625000 0.382790
vt 0.625000 0.250000
s 0
f 81/87/16 85/94/16 82/88/16 79/85/16
f 80/86/17 81/87/17 79/85/17 78/84/17
f 76/79/18 83/91/18 84/93/18 77/83/18
f 77/82/19 80/86/19 78/84/19 76/80/19
f 77/83/20 84/93/20 85/95/20 81/87/20 80/86/20
f 82/89/21 85/96/21 84/93/21 83/91/21
f 78/84/22 79/85/22 82/90/22 83/92/22 76/81/22
o Plane.002
v 1.211429 0.000000 0.001156
v 1.710139 0.000000 0.001156
v 1.211429 0.000000 -1.395035
v 1.710139 0.000000 -1.395035
v 1.211429 0.210940 -1.395035
v 1.211429 0.210940 0.001156
v 1.710139 0.210940 0.001156
v 1.710139 0.210940 -1.395035
vn -0.0000 -1.0000 -0.0000
vn -0.0000 1.0000 -0.0000
vn 1.0000 -0.0000 -0.0000
vn -1.0000 -0.0000 -0.0000
vn -0.0000 -0.0000 -1.0000
vn -0.0000 -0.0000 1.0000
vt 0.000000 0.000000
vt 1.000000 0.000000
vt 0.000000 1.000000
vt 1.000000 1.000000
vt 0.000000 1.000000
vt 0.000000 0.000000
vt 1.000000 0.000000
vt 1.000000 1.000000
s 0
f 86/97/23 88/99/23 89/100/23 87/98/23
f 91/102/24 92/103/24 93/104/24 90/101/24
f 87/98/25 89/100/25 93/104/25 92/103/25
f 88/99/26 86/97/26 91/102/26 90/101/26
f 89/100/27 88/99/27 90/101/27 93/104/27
f 86/97/28 87/98/28 92/103/28 91/102/28
